# xmcd
#
# Track frame offsets:
# 150
# 15065
# 31455
# 50130
# 69995
# 89015
# 104705
# 121155
# 138150
# 154047
# 177145
# 196942
# 213990
# 225065
# 237415
# 249112
# 264197
# 280712
# 293702
# 308225
#
# Disc length: 4267 seconds
#
#
# Revision: 0
# Processed by: cddbd v1.5.1PL0 Copyright (c) Steve Scherf et al.
# Submitted via: FreeRIP 2.90 
#
DISCID=0410a914
DTITLE=Pepe Aguilar - 
DYEAR=2002
DGENRE=
TTITLE0=Llamarada
TTITLE1=Lo que no fue no será
TTITLE2=Después de tanto
TTITLE3=El amar y querer
TTITLE4=Donde estes, con quien estes
TTITLE5=Este terco corazón
TTITLE6=Dos amores
TTITLE7=Me estoy acosumbrando a ti
TTITLE8=Si tú te vas
TTITLE9=Algo de mi
TTITLE10=Por mujeres como tu
TTITLE11=Quién entiende a ñas mujeres
TTITLE12=Chaparrita consentida
TTITLE13=El toro serrano
TTITLE14=Chata bonita
TTITLE15=Directo al corazón
TTITLE16=Me está llorando el corazón
TTITLE17=Baraja de oro
TTITLE18=Almohada
TTITLE19=No mas tantito
EXTD=
EXTT0=
EXTT1=
EXTT2=
EXTT3=
EXTT4=
EXTT5=
EXTT6=
EXTT7=
EXTT8=
EXTT9=
EXTT10=
EXTT11=
EXTT12=
EXTT13=
EXTT14=
EXTT15=
EXTT16=
EXTT17=
EXTT18=
EXTT19=
PLAYORDER=
